<svg width="76" height="59" viewBox="0 0 76 59" fill="none" xmlns="http://www.w3.org/2000/svg">
<path d="M31.4467 47.4155C31.6254 47.5988 31.8439 47.7458 32.0884 47.8473C32.3328 47.9488 32.5976 48.0025 32.8661 48.0048H36.2468C35.9783 48.0025 35.7134 47.9488 35.469 47.8473C35.2246 47.7458 35.006 47.5988 34.8273 47.4155L17.1078 29.675C12.7661 25.3299 12.7622 18.2582 17.106 13.9094C19.2732 11.746 22.1206 10.6645 24.9679 10.6648H21.5877C18.7403 10.6648 15.893 11.746 13.7258 13.9094C9.38194 18.2582 9.3858 25.33 13.7276 29.675L31.4467 47.4155Z" fill="#F1948A"/>
<path d="M36.2451 4.34388C32.7799 2.08786 28.8625 1 24.975 1H21.5944C25.4819 1 29.3993 2.08786 32.8645 4.34388H36.2451Z" fill="#F1948A"/>
<path d="M39.6765 31.0495L42.9943 27.5986H39.6137L36.296 31.0495C35.3772 31.9623 34.1411 32.4721 32.8804 32.4721H36.2608C37.5216 32.4721 38.7582 31.9623 39.6765 31.0495Z" fill="#F1948A"/>
<path d="M36.2409 57.5498C39.2156 57.5498 42.1902 56.4199 44.4542 54.1545L50.8515 47.7494C52.7111 45.8745 52.7111 42.8245 50.8289 40.927C49.8901 40.0196 48.6866 39.5662 47.4825 39.5662H44.1019C45.306 39.5662 46.5094 40.0196 47.4483 40.927C49.3304 42.8245 49.3304 45.8745 47.4708 47.7494L41.0735 54.1545C38.8096 56.4197 35.8348 57.5498 32.8602 57.5498H36.2409Z" fill="#F1948A"/>
<path d="M43.1069 15.9597H39.7262C41.0144 15.9597 42.3002 16.4725 43.247 17.484L51.7854 27.22H55.1661L46.6278 17.484C45.6808 16.4725 44.3951 15.9597 43.1069 15.9597Z" fill="#F1948A"/>
<path d="M32.8627 15.3269H36.2433C37.4597 15.3269 38.6761 14.87 39.6325 13.9319C41.8464 11.8238 44.6885 10.7723 47.526 10.7723H44.1455C41.3081 10.7723 38.466 11.8236 36.252 13.9319C35.2953 14.87 34.0788 15.3269 32.8627 15.3269Z" fill="#F1948A"/>
<path d="M51.654 38.9417H55.0346C56.2947 38.9417 57.5309 38.4319 58.4354 37.5354L63.8015 32.1321H60.4209L55.0549 37.5354C54.1501 38.4319 52.914 38.9417 51.654 38.9417Z" fill="#F1948A"/>
<path d="M58.8317 7.20749C60.0697 8.46018 61.1435 9.84084 62.0312 11.3214C63.0442 13.5398 62.3909 16.0173 60.553 17.3571C59.7523 17.9488 58.7548 18.2731 57.7254 18.2765H61.106C62.1354 18.2731 63.1329 17.9488 63.9336 17.3571C65.7718 16.0177 66.4248 13.5401 65.4118 11.3214C64.524 9.84089 63.4502 8.46023 62.2123 7.20749C58.1725 3.11466 52.8483 1.01512 47.4803 1.01512H44.0997C49.4678 1.01512 54.7919 3.11466 58.8317 7.20749Z" fill="#F1948A"/>
<path d="M71.6896 27.3069C71.6896 29.9672 69.5283 32.1321 66.8713 32.1321H70.252C72.909 32.1321 75.0701 29.9671 75.0701 27.3069C75.0701 24.6468 72.909 22.4832 70.252 22.4832H66.8713C69.5283 22.4832 71.6896 24.6461 71.6896 27.3069Z" fill="#F1948A"/>
<path d="M44.1024 39.5663C45.3065 39.5663 46.5099 40.0197 47.449 40.9272C49.3312 42.8245 49.3311 45.8746 47.4714 47.7495L41.074 54.1547C38.8101 56.4199 35.8353 57.55 32.8606 57.55C29.886 57.55 26.9118 56.4201 24.6476 54.1547L6.92771 36.4141C3.05464 32.5827 0.830827 27.2495 0.832547 21.7906C0.82551 17.3951 2.17813 13.1854 4.74472 9.61854C8.79161 3.99368 15.1496 1 21.5947 1C25.4821 1 29.3995 2.08786 32.8648 4.34388C36.3201 2.11146 40.2218 1.01516 44.1001 1.01516C49.4683 1.01516 54.7925 3.11478 58.8323 7.20754C60.0703 8.46025 61.1441 9.84091 62.0319 11.3215C63.0449 13.5398 62.3915 16.0174 60.5537 17.3567C59.7529 17.9485 58.7555 18.2728 57.726 18.2762C56.2341 18.2762 54.7632 17.5872 53.8231 16.2929C53.3147 15.4328 52.6982 14.6299 51.9862 13.9005C49.7955 11.8168 46.9725 10.7723 44.1455 10.7723C41.308 10.7723 38.4659 11.8239 36.2519 13.9319C35.2956 14.87 34.0791 15.3269 32.8626 15.3269C31.6219 15.3269 30.3816 14.8521 29.4394 13.9038C27.2764 11.7441 24.4318 10.6643 21.5877 10.6643C18.7403 10.6643 15.8929 11.7454 13.7257 13.9087C9.38182 18.2577 9.38568 25.3294 13.7275 29.6744L31.4471 47.4149C31.6257 47.5982 31.8443 47.7453 32.0887 47.8468C32.3332 47.9483 32.5981 48.0019 32.8666 48.0043C33.1325 48.0027 33.395 47.9497 33.637 47.8488C33.8789 47.7479 34.0948 47.6014 34.2705 47.4188L40.7358 40.9452C41.692 40.0208 42.8975 39.5663 44.1024 39.5663Z" fill="#F1948A"/>
<path d="M66.8715 22.4831C69.5285 22.4831 71.6897 24.6461 71.6897 27.3069C71.6897 29.9677 69.5285 32.1321 66.8715 32.1321H60.4208L55.0547 37.5354C54.1501 38.432 52.9139 38.9417 51.6539 38.9417C50.9699 38.9195 50.2994 38.7613 49.689 38.4779C49.0786 38.1946 48.5431 37.793 48.1197 37.3011L39.6132 27.5986L36.2954 31.0495C35.3766 31.9623 34.1405 32.4721 32.8798 32.4721H26.0583C23.4014 32.4721 21.2388 30.3087 21.2388 27.6487C21.2388 24.9886 23.4014 22.8228 26.0583 22.8228H30.8779L36.2458 17.4512C36.3066 17.3841 36.3712 17.3199 36.4393 17.2588C36.8632 16.851 37.3728 16.5258 37.9376 16.3025C38.5023 16.0792 39.1106 15.9626 39.7258 15.9596C41.014 15.9596 42.2998 16.4725 43.2466 17.4839L51.785 27.2199L54.9311 23.9409C55.8368 23.0154 57.0843 22.4888 58.3629 22.4831H66.8715Z" fill="#F1948A"/>
<g style="mix-blend-mode:multiply" opacity="0.4" filter="url(#filter0_f_346_950)">
<path d="M44.6031 41.9381C44.9211 41.9391 45.2356 41.9998 45.527 42.1164C45.8183 42.233 46.0804 42.403 46.297 42.616C47.246 43.5718 47.246 45.1274 46.2992 46.0817L39.9049 52.4827C38.157 54.23 35.8337 55.1936 33.3624 55.1936C30.8912 55.1936 28.5679 54.23 26.8206 52.4827L9.09596 34.7385C5.66342 31.3423 3.6946 26.623 3.69726 21.7896C3.68944 17.8921 4.88733 14.1614 7.1629 11.0007C10.6069 6.21326 16.186 3.3551 22.0873 3.3551C25.9541 3.3551 29.6621 4.55616 32.8105 6.82685C32.9663 6.94192 33.1605 7.00478 33.3608 7.00498C33.5611 7.00519 33.7555 6.94274 33.9116 6.82799C37.0455 4.58963 40.7351 3.40531 44.58 3.40531C49.5332 3.40595 54.1763 5.34696 57.6562 8.87097C58.7462 9.97393 59.6935 11.1881 60.4795 12.4895C60.9264 13.5361 60.589 14.7708 59.6649 15.4438C59.2574 15.7467 58.7488 15.9128 58.2238 15.9144C57.8412 15.9118 57.465 15.825 57.127 15.6613C56.7889 15.4976 56.4989 15.2618 56.2816 14.9739C55.6918 13.9818 54.9759 13.0569 54.1486 12.2185C51.5711 9.76517 48.1936 8.41401 44.6373 8.41401C41.0811 8.41401 37.7038 9.7656 35.0924 12.2531C34.8742 12.4788 34.6057 12.6592 34.305 12.7822C34.0043 12.9052 33.6783 12.9679 33.3489 12.9661C33.0194 12.9644 32.6942 12.8982 32.3951 12.772C32.0959 12.6458 31.8298 12.4625 31.6145 12.2345C29.0676 9.69216 25.684 8.29286 22.0879 8.29286C18.4918 8.29286 15.1081 9.69216 12.5598 12.2351C10.0018 14.8051 8.60381 18.1929 8.60498 21.7953C8.60561 25.404 10.0102 28.7961 12.5598 31.3474L30.3023 49.1106C31.122 49.9246 32.2088 50.3726 33.3624 50.3726C34.53 50.3726 35.6259 49.9149 36.4456 49.088L42.8963 42.6293C43.1136 42.4131 43.3774 42.24 43.671 42.1211C43.9647 42.0022 44.282 41.9399 44.6031 41.9381Z" fill="#F1948A"/>
</g>
<g style="mix-blend-mode:multiply" opacity="0.4" filter="url(#filter1_f_346_950)">
<path d="M67.3743 24.8478C68.7281 24.8478 69.8307 25.9514 69.8307 27.3075C69.8307 28.6635 68.7283 29.7663 67.3743 29.7663H60.3335C60.2067 29.7674 60.0817 29.7928 59.9663 29.8408C59.8509 29.8888 59.7478 29.9585 59.6637 30.0452L53.8869 35.8636C53.6703 36.0854 53.4054 36.2634 53.1093 36.3863C52.8132 36.5092 52.4923 36.5742 52.1671 36.5772C51.8238 36.5626 51.4879 36.4802 51.1826 36.3357C50.8773 36.1912 50.6098 35.988 50.3985 35.7401L40.8749 24.8782C40.7942 24.7809 40.6905 24.7014 40.5716 24.6457C40.4526 24.59 40.3215 24.5595 40.1879 24.5565C40.0543 24.5535 39.9217 24.578 39.7999 24.6283C39.6781 24.6786 39.5703 24.7534 39.4844 24.847L35.1122 29.3941C34.8915 29.6186 34.6216 29.7982 34.3201 29.921C34.0186 30.0438 33.6922 30.1072 33.3621 30.1071H26.5604C25.2059 30.1071 24.1038 29.0035 24.1038 27.647C24.1038 26.2905 25.2059 25.1885 26.5604 25.1885H31.9684C32.0947 25.1875 32.2194 25.1623 32.3344 25.1145C32.4494 25.0668 32.5522 24.9975 32.6361 24.9112L38.4388 19.1024C38.4772 19.0607 38.5169 19.0201 38.5537 18.9861C38.7774 18.7689 39.0489 18.5974 39.3503 18.4831C39.6517 18.3687 39.9762 18.314 40.3023 18.3227C40.6285 18.3313 40.9489 18.403 41.2426 18.5331C41.5363 18.6632 41.7965 18.8487 42.0061 19.0775L51.5288 29.9409C51.6098 30.038 51.7137 30.1173 51.8327 30.1729C51.9517 30.2285 52.0828 30.2589 52.2164 30.2619C52.35 30.265 52.4826 30.2405 52.6045 30.1904C52.7264 30.1403 52.8344 30.0658 52.9206 29.9724L57.1304 25.5858C57.3483 25.3587 57.6157 25.1758 57.9154 25.0486C58.2151 24.9215 58.5405 24.853 58.8709 24.8475L67.3743 24.8478Z" fill="#F1948A"/>
</g>
<path d="M27.1746 49.1102C27.9942 49.9242 29.081 50.3723 30.2347 50.3723H31.0457C29.8919 50.3723 28.8052 49.9242 27.9856 49.1102L10.2431 31.3471C7.69357 28.7957 6.28897 25.4036 6.28834 21.7949C6.28717 18.1925 7.68513 14.8047 10.2431 12.2348C12.7914 9.69178 16.1751 8.29248 19.7712 8.29248H18.9606C15.3645 8.29248 11.9809 9.69178 9.43256 12.2348C6.8746 14.8047 5.47664 18.1925 5.47781 21.7949C5.47844 25.4036 6.88304 28.7957 9.43256 31.3471L27.1746 49.1102Z" fill="url(#paint0_linear_346_950)"/>
<path d="M30.2348 7.00516H31.0458C30.8451 7.00457 30.6505 6.94177 30.4938 6.82702C27.3455 4.55634 23.6375 3.35535 19.7707 3.35535H18.9598C22.8265 3.35535 26.5345 4.55634 29.6829 6.82702C29.8395 6.94177 30.0341 7.00457 30.2348 7.00516Z" fill="url(#paint1_linear_346_950)"/>
<path d="M31.0457 12.9657C31.3725 12.964 31.6953 12.8996 31.9932 12.7768C32.2912 12.654 32.5577 12.4755 32.7756 12.2527C35.3871 9.76509 38.7648 8.4135 42.3204 8.4135H41.5095C37.9536 8.4135 34.5761 9.76509 31.9646 12.2527C31.7467 12.4755 31.4802 12.654 31.1822 12.7768C30.8843 12.8996 30.5615 12.964 30.2347 12.9657H31.0457Z" fill="url(#paint2_linear_346_950)"/>
<path d="M31.0457 55.1936C33.517 55.1936 35.8402 54.23 37.5881 52.4827L43.9822 46.0817C44.9291 45.1274 44.9292 43.5716 43.9801 42.6161C43.7635 42.4031 43.5014 42.233 43.2101 42.1164C42.9187 41.9998 42.6043 41.9391 42.2862 41.9381H41.4753C41.7933 41.9391 42.1078 41.9998 42.3992 42.1164C42.6905 42.233 42.9526 42.4031 43.1692 42.6161C44.1182 43.5718 44.1182 45.1274 43.1713 46.0817L36.7771 52.4827C35.0292 54.23 32.706 55.1936 30.2347 55.1936H31.0457Z" fill="url(#paint3_linear_346_950)"/>
<path d="M36.357 24.8472L31.9848 29.3943C31.7641 29.6188 31.4943 29.7984 31.1928 29.9212C30.8913 30.0441 30.5648 30.1075 30.2347 30.1073H31.0457C31.3758 30.1075 31.7022 30.0441 32.0037 29.9212C32.3052 29.7984 32.5751 29.6188 32.7958 29.3943L37.168 24.8472C37.2548 24.755 37.3626 24.6812 37.4839 24.631C37.6051 24.5808 37.7369 24.5554 37.8699 24.5566H37.059C36.9259 24.5555 36.7942 24.5809 36.6729 24.631C36.5517 24.6812 36.4439 24.755 36.357 24.8472Z" fill="url(#paint4_linear_346_950)"/>
<path d="M38.8783 19.0776L48.4009 29.941C48.4832 30.0373 48.5875 30.1159 48.7066 30.1714C48.8256 30.2269 48.9565 30.2579 49.09 30.2623H49.901C49.7674 30.2579 49.6366 30.2269 49.5176 30.1714C49.3985 30.1159 49.2942 30.0373 49.2119 29.941L39.6892 19.0776C39.4714 18.8413 39.1998 18.6513 38.8935 18.5208C38.5872 18.3903 38.2535 18.3224 37.9155 18.322H37.1046C37.4425 18.3224 37.7763 18.3903 38.0826 18.5208C38.3889 18.6513 38.6605 18.8413 38.8783 19.0776Z" fill="url(#paint5_linear_346_950)"/>
<path d="M58.0167 29.7662H57.2058C57.079 29.7673 56.9539 29.7927 56.8385 29.8407C56.7231 29.8887 56.62 29.9583 56.5358 30.0451L50.7591 35.8635C50.5425 36.0853 50.2776 36.2634 49.9815 36.3862C49.6854 36.5091 49.3645 36.5741 49.0393 36.5771H49.8503C50.1755 36.5741 50.4964 36.5091 50.7925 36.3862C51.0886 36.2634 51.3534 36.0853 51.57 35.8635L57.3468 30.0451C57.4309 29.9583 57.534 29.8887 57.6494 29.8407C57.7648 29.7926 57.8899 29.7672 58.0167 29.7662Z" fill="url(#paint6_linear_346_950)"/>
<path d="M54.5283 8.8712C55.6182 9.97417 56.5656 11.1884 57.3515 12.4898C57.7984 13.5363 57.461 14.771 56.537 15.444C56.1295 15.7469 55.6209 15.913 55.0958 15.9146H55.9067C56.4318 15.913 56.9405 15.7469 57.348 15.444C58.2717 14.7713 58.6094 13.5363 58.1624 12.4898C57.3765 11.1883 56.4292 9.97414 55.3392 8.8712C51.8593 5.34718 47.2165 3.40617 42.2632 3.40553H41.4522C46.4052 3.40617 51.0484 5.34718 54.5283 8.8712Z" fill="url(#paint7_linear_346_950)"/>
<path d="M66.7033 27.3074C66.7033 28.6638 65.6009 29.7662 64.2469 29.7662H65.0579C66.4117 29.7662 67.5142 28.6638 67.5142 27.3074C67.5142 25.9511 66.4118 24.8477 65.0579 24.8477H64.2469C65.6004 24.8477 66.7033 25.9514 66.7033 27.3074Z" fill="url(#paint8_linear_346_950)"/>
<path d="M41.4752 41.9381C41.7933 41.9391 42.1077 41.9998 42.3991 42.1164C42.6904 42.233 42.9525 42.403 43.1691 42.616C44.1181 43.5718 44.1181 45.1274 43.1713 46.0817L36.7771 52.4827C35.0291 54.23 32.7059 55.1936 30.2346 55.1936C27.7634 55.1936 25.4401 54.23 23.6928 52.4827L5.96833 34.7385C2.53581 31.3423 0.567005 26.623 0.569664 21.7896C0.561845 17.8921 1.75973 14.1614 4.03528 11.0007C7.47921 6.21327 13.0584 3.3551 18.9595 3.3551C22.8263 3.3551 26.5344 4.55616 29.6827 6.82685C29.8385 6.94192 30.0327 7.00478 30.233 7.00498C30.4333 7.00519 30.6277 6.94274 30.7838 6.82799C33.9177 4.58963 37.6072 3.40531 41.4521 3.40531C46.4053 3.40595 51.0483 5.34696 54.5282 8.87097C55.6182 9.97393 56.5656 11.1881 57.3515 12.4895C57.7984 13.5361 57.461 14.7708 56.5369 15.4438C56.1295 15.7467 55.6209 15.9128 55.0958 15.9144C54.7133 15.9118 54.3371 15.825 53.999 15.6613C53.6609 15.4976 53.371 15.2618 53.1536 14.9739C52.5639 13.9818 51.8479 13.0569 51.0207 12.2185C48.4432 9.76517 45.0656 8.41401 41.5094 8.41401C37.9531 8.41401 34.576 9.7656 31.9646 12.2531C31.7464 12.4788 31.4778 12.6592 31.1771 12.7822C30.8764 12.9052 30.5505 12.9679 30.2211 12.9661C29.8916 12.9644 29.5664 12.8982 29.2673 12.772C28.9681 12.6458 28.702 12.4625 28.4867 12.2345C25.9398 9.69216 22.5563 8.29286 18.9602 8.29286C15.3641 8.29286 11.9804 9.69216 9.43203 12.2351C6.87406 14.8051 5.47618 18.1929 5.47735 21.7953C5.47798 25.404 6.88251 28.7961 9.43203 31.3474L27.1745 49.1106C27.9942 49.9246 29.081 50.3726 30.2346 50.3726C31.4022 50.3726 32.4981 49.9149 33.3178 49.088L39.7684 42.6293C39.9857 42.4131 40.2495 42.24 40.5431 42.1211C40.8368 42.0022 41.1541 41.9399 41.4752 41.9381Z" fill="#FFF2DC"/>
<path d="M64.2463 24.8477C65.6002 24.8477 66.7029 25.9514 66.7029 27.3074C66.7029 28.6634 65.6004 29.7662 64.2463 29.7662H57.2057C57.0789 29.7673 56.9538 29.7927 56.8385 29.8407C56.7231 29.8888 56.62 29.9584 56.5359 30.0451L50.7591 35.8635C50.5425 36.0853 50.2776 36.2634 49.9815 36.3863C49.6854 36.5091 49.3645 36.5741 49.0393 36.5771C48.696 36.5625 48.3601 36.4801 48.0548 36.3356C47.7495 36.1911 47.482 35.9879 47.2707 35.74L37.7472 24.8782C37.6664 24.7808 37.5627 24.7013 37.4437 24.6456C37.3248 24.5899 37.1937 24.5594 37.0601 24.5564C36.9265 24.5534 36.7939 24.578 36.6721 24.6283C36.5504 24.6786 36.4425 24.7533 36.3566 24.8469L31.9844 29.394C31.7638 29.6185 31.4939 29.7981 31.1924 29.9209C30.8909 30.0438 30.5645 30.1072 30.2344 30.107H23.433C22.0785 30.107 20.9764 29.0034 20.9764 27.6469C20.9764 26.2905 22.0789 25.1885 23.433 25.1885H28.841C28.9673 25.1874 29.0919 25.1622 29.2069 25.1145C29.3219 25.0667 29.4247 24.9974 29.5087 24.9111L35.3113 19.1024C35.3498 19.0606 35.3895 19.02 35.4262 18.9861C35.6499 18.7688 35.9215 18.5973 36.2229 18.483C36.5243 18.3686 36.8487 18.314 37.1749 18.3226C37.5011 18.3312 37.8215 18.4029 38.1151 18.533C38.4088 18.6631 38.669 18.8487 38.8786 19.0774L48.4013 29.9408C48.4823 30.038 48.5862 30.1173 48.7052 30.1728C48.8242 30.2284 48.9553 30.2588 49.0889 30.2619C49.2225 30.2649 49.3551 30.2404 49.477 30.1903C49.5989 30.1402 49.7069 30.0657 49.7931 29.9723L54.0029 25.5857C54.2208 25.3586 54.4882 25.1757 54.7879 25.0485C55.0876 24.9214 55.413 24.8529 55.7434 24.8474L64.2463 24.8477Z" fill="#FFF2DC"/>
<defs>
<filter id="filter0_f_346_950" x="0.69722" y="0.355103" width="62.9781" height="57.8385" filterUnits="userSpaceOnUse" color-interpolation-filters="sRGB">
<feFlood flood-opacity="0" result="BackgroundImageFix"/>
<feBlend mode="normal" in="SourceGraphic" in2="BackgroundImageFix" result="shape"/>
<feGaussianBlur stdDeviation="1.5" result="effect1_foregroundBlur_346_950"/>
</filter>
<filter id="filter1_f_346_950" x="21.1038" y="15.3218" width="51.727" height="24.2554" filterUnits="userSpaceOnUse" color-interpolation-filters="sRGB">
<feFlood flood-opacity="0" result="BackgroundImageFix"/>
<feBlend mode="normal" in="SourceGraphic" in2="BackgroundImageFix" result="shape"/>
<feGaussianBlur stdDeviation="1.5" result="effect1_foregroundBlur_346_950"/>
</filter>
<linearGradient id="paint0_linear_346_950" x1="36.496" y1="3.35535" x2="36.496" y2="55.1936" gradientUnits="userSpaceOnUse">
<stop stop-color="#F7A175"/>
<stop offset="1" stop-color="#FFF2DC"/>
</linearGradient>
<linearGradient id="paint1_linear_346_950" x1="36.496" y1="3.35535" x2="36.496" y2="55.1936" gradientUnits="userSpaceOnUse">
<stop stop-color="#F7A175"/>
<stop offset="1" stop-color="#FFF2DC"/>
</linearGradient>
<linearGradient id="paint2_linear_346_950" x1="36.496" y1="3.35535" x2="36.496" y2="55.1936" gradientUnits="userSpaceOnUse">
<stop stop-color="#F7A175"/>
<stop offset="1" stop-color="#FFF2DC"/>
</linearGradient>
<linearGradient id="paint3_linear_346_950" x1="36.496" y1="3.35535" x2="36.496" y2="55.1936" gradientUnits="userSpaceOnUse">
<stop stop-color="#F7A175"/>
<stop offset="1" stop-color="#FFF2DC"/>
</linearGradient>
<linearGradient id="paint4_linear_346_950" x1="36.496" y1="3.35535" x2="36.496" y2="55.1936" gradientUnits="userSpaceOnUse">
<stop stop-color="#F7A175"/>
<stop offset="1" stop-color="#FFF2DC"/>
</linearGradient>
<linearGradient id="paint5_linear_346_950" x1="36.496" y1="3.35535" x2="36.496" y2="55.1936" gradientUnits="userSpaceOnUse">
<stop stop-color="#F7A175"/>
<stop offset="1" stop-color="#FFF2DC"/>
</linearGradient>
<linearGradient id="paint6_linear_346_950" x1="36.496" y1="3.35535" x2="36.496" y2="55.1936" gradientUnits="userSpaceOnUse">
<stop stop-color="#F7A175"/>
<stop offset="1" stop-color="#FFF2DC"/>
</linearGradient>
<linearGradient id="paint7_linear_346_950" x1="36.496" y1="3.35535" x2="36.496" y2="55.1936" gradientUnits="userSpaceOnUse">
<stop stop-color="#F7A175"/>
<stop offset="1" stop-color="#FFF2DC"/>
</linearGradient>
<linearGradient id="paint8_linear_346_950" x1="36.496" y1="3.35535" x2="36.496" y2="55.1936" gradientUnits="userSpaceOnUse">
<stop stop-color="#F7A175"/>
<stop offset="1" stop-color="#FFF2DC"/>
</linearGradient>
</defs>
</svg>
