<svg width="54" height="63" viewBox="0 0 54 63" fill="none" xmlns="http://www.w3.org/2000/svg">
<path d="M9.54323 14.167V31.6538C9.54323 42.2613 21.2 49.9656 25.7229 52.5538H28.6072C24.0842 49.9656 12.4275 42.2613 12.4275 31.6538V14.1953H13.6538C20.2031 14.1953 25.5978 11.7993 28.5977 10.1294H25.7134C22.9043 11.6931 17.9949 13.8934 12.0046 14.167H9.54323Z" fill="url(#paint0_linear_346_957)"/>
<path d="M10.7464 5.79947H13.6307C12.1601 5.80214 10.6962 5.61866 9.28056 5.25424C8.941 5.16686 8.58993 5.12252 8.23719 5.12245H5.35287C5.70562 5.12252 6.05669 5.16686 6.39625 5.25424C7.81186 5.61866 9.2758 5.80214 10.7464 5.79947Z" fill="url(#paint1_linear_346_957)"/>
<path d="M31.5166 35.5417H29.8242V37.2363C29.8242 39.506 27.9807 41.3515 25.7138 41.3515H28.5982C30.865 41.3515 32.7086 39.5058 32.7086 37.2363V35.5417H34.4013C36.6681 35.5417 38.5117 33.696 38.5117 31.4265C38.5117 29.1571 36.6681 27.3096 34.4013 27.3096H32.7086V25.6149C32.7086 23.3451 30.865 21.4997 28.5982 21.4997H25.7138C27.9807 21.4997 29.8242 23.3454 29.8242 25.6149V27.3096H31.517C33.7838 27.3096 35.6273 29.1567 35.6273 31.4265C35.6273 33.6963 33.7834 35.5417 31.5166 35.5417Z" fill="url(#paint2_linear_346_957)"/>
<path d="M40.6824 5.79758H43.5666C36.6203 5.79758 31.1517 1.86183 31.1009 1.82272C30.3976 1.29279 29.5153 1.00207 28.6041 1H25.7197C26.631 1.002 27.5134 1.29269 28.2167 1.8226C28.2676 1.86183 33.7361 5.79758 40.6824 5.79758Z" fill="url(#paint3_linear_346_957)"/>
<path d="M40.6696 14.195H43.5541C43.9538 14.195 44.3588 14.1859 44.7662 14.167H41.8818C41.4744 14.1859 41.0694 14.195 40.6696 14.195Z" fill="url(#paint4_linear_346_957)"/>
<path d="M50.2636 9.31879V31.6538C50.2636 50.2462 28.4164 60.6727 27.4864 61.1056C26.938 61.3639 26.3303 61.499 25.7135 61.4997H28.5978C29.2146 61.499 29.8224 61.3639 30.3707 61.1056C31.3007 60.6724 53.1479 50.2459 53.1479 31.6538V9.31879C53.1479 8.02193 52.5501 6.7973 51.525 6.00264C50.811 5.4385 49.9001 5.12633 48.9566 5.12245H46.0724C47.0159 5.12633 47.9268 5.4385 48.6408 6.00264C49.6657 6.7973 50.2636 8.02174 50.2636 9.31879Z" fill="url(#paint5_linear_346_957)"/>
<path d="M31.5167 27.3095C33.7834 27.3095 35.627 29.1568 35.627 31.4265C35.627 33.6963 33.7834 35.5416 31.5167 35.5416H29.8243V37.2363C29.8243 39.5058 27.9808 41.3515 25.7139 41.3514C23.447 41.3513 21.6017 39.5057 21.6017 37.2363V35.5416H19.9094C17.6422 35.5416 15.7987 33.6959 15.7987 31.4265C15.7987 29.157 17.6422 27.3095 19.9094 27.3095H21.6017V25.6148C21.6017 23.3454 23.4471 21.4997 25.7139 21.4997C27.9807 21.4997 29.8243 23.3454 29.8243 25.6149V27.3095H31.5167Z" fill="#F1948A"/>
<path d="M48.6406 6.00265C49.6657 6.79737 50.2636 8.02223 50.2636 9.3188V31.6538C50.2636 50.2462 28.4165 60.6724 27.4864 61.1059C26.9385 61.3649 26.3306 61.5 25.7138 61.5C25.097 61.5 24.4891 61.3649 23.9411 61.1059C23.0102 60.6727 1.16158 50.2462 1.16158 31.6541V9.31873C1.16158 8.02187 1.7597 6.7973 2.78512 6.00259C3.49891 5.43851 4.40965 5.12635 5.35298 5.12245C5.70572 5.12252 6.05679 5.16687 6.39635 5.25424C7.81197 5.61862 9.27591 5.80208 10.7465 5.79941C17.6911 5.79941 23.1604 1.85909 23.2262 1.81149C23.9323 1.2893 24.812 1.00304 25.72 1C26.6312 1.00208 27.5135 1.29278 28.2169 1.82266C28.2678 1.86171 33.7362 5.79746 40.6826 5.79746C42.1518 5.80014 43.6143 5.6173 45.0288 5.25412C45.3685 5.16674 45.7196 5.1224 46.0724 5.12233C47.0159 5.12629 47.9267 5.43851 48.6406 6.00265ZM41.882 31.6538V14.167C41.4746 14.1859 41.0696 14.1951 40.6698 14.1951C34.1592 14.1951 28.7139 11.8 25.7136 10.1293C22.7137 11.7993 17.3189 14.1953 10.7696 14.1953C10.3649 14.1953 9.9562 14.1859 9.54343 14.167V31.6537C9.54343 42.2611 21.2002 49.9655 25.7231 52.5538C30.2667 49.9799 41.882 42.3542 41.882 31.6538Z" fill="#F1948A"/>
<g style="mix-blend-mode:multiply" opacity="0.4" filter="url(#filter0_f_346_957)">
<path d="M31.9456 29.3326C33.1012 29.3326 34.0408 30.2732 34.0408 31.4302C34.0408 32.5872 33.1012 33.5291 31.9456 33.5291H29.0437C28.5988 33.5291 28.2373 33.89 28.2373 34.3357V37.2404C28.2373 38.3977 27.2973 39.3388 26.1415 39.3388C24.9856 39.3388 24.0459 38.3977 24.0459 37.2404V34.3356C24.0459 33.8899 23.6849 33.529 23.24 33.529H20.3381C19.1825 33.529 18.2433 32.5873 18.2433 31.4301C18.2433 30.2729 19.1828 29.3326 20.3381 29.3326H23.2399C23.6848 29.3326 24.0457 28.9712 24.0457 28.5252V25.6199C24.0457 24.4627 24.9864 23.5216 26.1413 23.5216C27.2963 23.5216 28.2372 24.4627 28.2372 25.6199V28.5253C28.2372 28.9713 28.5987 29.3326 29.0436 29.3326H31.9456Z" fill="#F1948A"/>
</g>
<g style="mix-blend-mode:multiply" opacity="0.4" filter="url(#filter1_f_346_957)">
<path d="M47.8357 7.60081C48.1036 7.81503 48.3176 8.0798 48.4629 8.37688C48.6083 8.67397 48.6815 8.99633 48.6776 9.32179V31.6559C48.6776 48.9783 27.9449 58.8685 27.0638 59.2817C26.7788 59.4156 26.4631 59.4854 26.1428 59.4854C25.8225 59.4854 25.5067 59.4156 25.2218 59.2817C24.3399 58.8687 3.60559 48.9783 3.60559 31.6559V9.32173C3.60181 8.99624 3.67514 8.67387 3.82058 8.37678C3.96602 8.07969 4.1801 7.81495 4.44808 7.60075C4.82114 7.30797 5.29595 7.14617 5.78752 7.1443C5.96868 7.14436 6.14896 7.16694 6.32346 7.21142C7.89649 7.61639 9.52321 7.8204 11.1574 7.81766C18.8115 7.81766 24.7764 3.49343 24.8473 3.44108C25.2139 3.16723 25.6721 3.01674 26.1454 3.01477C26.6188 3.01623 27.077 3.16814 27.4414 3.4445C27.5095 3.49557 33.4654 7.81583 41.1258 7.81583C42.76 7.81851 44.3868 7.61512 45.9603 7.21142C46.1352 7.16615 46.316 7.14323 46.4978 7.14332C46.9889 7.14594 47.4631 7.30808 47.8357 7.60081V7.60081ZM44.3263 31.656V11.9652C43.2482 12.112 42.1598 12.1854 41.0699 12.1849C34.1809 12.1849 28.5774 9.29598 26.1428 7.80204C23.7093 9.29598 18.1194 12.1849 11.2204 12.1849C10.1283 12.1854 9.03769 12.1119 7.95743 11.9652V31.6559C7.95743 44.3239 22.3219 52.8257 26.143 54.8622C29.9636 52.8257 44.3264 44.3239 44.3264 31.6559" fill="#F1948A"/>
</g>
<path d="M5.2887 11.9651V31.6558C5.2887 44.3237 19.6532 52.8255 23.4743 54.862H24.1661C20.3452 52.8255 5.98057 44.3237 5.98057 31.6558V11.9651H5.2887Z" fill="url(#paint6_linear_346_957)"/>
<path d="M9.18062 7.81745C7.54646 7.82019 5.91974 7.61618 4.3467 7.21121C4.17219 7.16673 3.99188 7.14415 3.81073 7.14409H3.11882C3.29997 7.14415 3.48026 7.16673 3.65476 7.21121C5.2278 7.61618 6.85452 7.82019 8.48869 7.81745H9.18062Z" fill="url(#paint7_linear_346_957)"/>
<path d="M9.24378 12.1848C16.1428 12.1848 21.7326 9.29592 24.1662 7.80197H23.4743C21.0408 9.29592 15.4508 12.1848 8.55184 12.1848H9.24378Z" fill="url(#paint8_linear_346_957)"/>
<path d="M24.1647 39.3386C25.3205 39.3386 26.2606 38.3974 26.2606 37.2403V34.3354C26.2606 33.89 26.6221 33.5288 27.067 33.5288H26.3753C25.9304 33.5288 25.5689 33.8897 25.5689 34.3354V37.2403C25.5689 38.3974 24.6289 39.3386 23.473 39.3386H24.1647Z" fill="url(#paint9_linear_346_957)"/>
<path d="M24.1647 23.5215H23.4728C24.6286 23.5215 25.5686 24.4627 25.5686 25.6199V28.5252C25.5686 28.9712 25.9301 29.3326 26.3751 29.3326H27.067C26.6221 29.3326 26.2606 28.9712 26.2606 28.5252V25.6199C26.2606 24.4627 25.3205 23.5215 24.1647 23.5215Z" fill="url(#paint10_linear_346_957)"/>
<path d="M29.2772 29.3325C30.4328 29.3325 31.3724 30.2731 31.3724 31.4301C31.3724 32.5871 30.4328 33.529 29.2772 33.529H29.9692C31.1247 33.529 32.0643 32.5874 32.0643 31.4301C32.0643 30.2728 31.1247 29.3325 29.9692 29.3325H29.2772Z" fill="url(#paint11_linear_346_957)"/>
<path d="M38.457 7.81559H39.1489C31.4889 7.81559 25.5326 3.49532 25.4646 3.44425C25.1001 3.1679 24.642 3.01599 24.1686 3.01453H23.4766C23.9501 3.01599 24.4082 3.1679 24.7727 3.44425C24.8409 3.49532 30.7969 7.81559 38.457 7.81559Z" fill="url(#paint12_linear_346_957)"/>
<path d="M39.0929 12.1848C40.1829 12.1853 41.2713 12.1118 42.3494 11.9651H41.6575C40.5794 12.1118 39.491 12.1853 38.401 12.1848H39.0929Z" fill="url(#paint13_linear_346_957)"/>
<path d="M46.0088 9.32157V31.6558C46.0088 48.9782 25.2763 58.8683 24.3951 59.2816C24.1101 59.415 23.7946 59.4848 23.4745 59.4853H24.1663C24.4866 59.4848 24.8022 59.415 25.0873 59.2816C25.9685 58.8686 46.701 48.9782 46.701 31.6558V9.32157C46.7049 8.99611 46.6316 8.67375 46.4863 8.37666C46.3409 8.07958 46.127 7.81481 45.8591 7.60059C45.4864 7.30771 45.012 7.14553 44.5206 7.14304H43.8287C44.3199 7.14567 44.7941 7.30785 45.1666 7.60065C45.4345 7.81485 45.6486 8.0796 45.7939 8.37667C45.9393 8.67375 46.0126 8.99611 46.0088 9.32157Z" fill="url(#paint14_linear_346_957)"/>
<path d="M29.2772 29.3327C30.4327 29.3327 31.3723 30.2733 31.3723 31.4302C31.3723 32.5872 30.4327 33.5291 29.2772 33.5291H26.3752C25.9303 33.5291 25.5688 33.89 25.5688 34.3357V37.2405C25.5688 38.3977 24.6288 39.3388 23.473 39.3388C22.3171 39.3388 21.3774 38.3977 21.3774 37.2405V34.3356C21.3774 33.8899 21.0164 33.5291 20.5715 33.5291H17.6696C16.514 33.5291 15.5748 32.5874 15.5748 31.4302C15.5748 30.273 16.5143 29.3326 17.6696 29.3326H20.5714C21.0163 29.3326 21.3772 28.9712 21.3772 28.5253V25.6199C21.3772 24.4627 22.3179 23.5216 23.4728 23.5216C24.6278 23.5216 25.5687 24.4627 25.5687 25.6199V28.5253C25.5687 28.9713 25.9302 29.3327 26.3751 29.3327H29.2772Z" fill="#FFF2DC"/>
<path d="M45.1669 7.60081C45.4348 7.81503 45.6488 8.0798 45.7941 8.37688C45.9395 8.67397 46.0127 8.99633 46.0088 9.32179V31.6559C46.0088 48.9783 25.2762 58.8685 24.395 59.2817C24.11 59.4156 23.7943 59.4854 23.474 59.4854C23.1537 59.4854 22.8379 59.4156 22.553 59.2817C21.6711 58.8687 0.936846 48.9783 0.936846 31.6559V9.32173C0.93306 8.99624 1.0064 8.67387 1.15183 8.37678C1.29727 8.07969 1.51135 7.81495 1.77934 7.60075C2.15239 7.30797 2.6272 7.14617 3.11877 7.1443C3.29993 7.14436 3.48021 7.16694 3.65471 7.21142C5.22774 7.61639 6.85445 7.8204 8.48861 7.81766C16.1427 7.81766 22.1076 3.49343 22.1785 3.44108C22.5451 3.16723 23.0033 3.01674 23.4766 3.01477C23.95 3.01623 24.4082 3.16814 24.7726 3.4445C24.8407 3.49557 30.7967 7.81583 38.457 7.81583C40.0912 7.81851 41.718 7.61512 43.2915 7.21142C43.4664 7.16615 43.6472 7.14323 43.829 7.14332C44.3201 7.14594 44.7943 7.30808 45.1669 7.60081ZM41.6575 31.6559V11.9652C40.5794 12.112 39.491 12.1854 38.4011 12.1849C31.5121 12.1849 25.9086 9.29598 23.474 7.80204C21.0405 9.29598 15.4506 12.1849 8.55167 12.1849C7.45958 12.1854 6.36893 12.1119 5.28868 11.9652V31.6559C5.28868 44.3239 19.6532 52.8257 23.4742 54.8622C27.2948 52.8257 41.6575 44.3239 41.6575 31.6559Z" fill="#FFF2DC"/>
<defs>
<filter id="filter0_f_346_957" x="15.2433" y="20.5216" width="21.7974" height="21.8171" filterUnits="userSpaceOnUse" color-interpolation-filters="sRGB">
<feFlood flood-opacity="0" result="BackgroundImageFix"/>
<feBlend mode="normal" in="SourceGraphic" in2="BackgroundImageFix" result="shape"/>
<feGaussianBlur stdDeviation="1.5" result="effect1_foregroundBlur_346_957"/>
</filter>
<filter id="filter1_f_346_957" x="0.605453" y="0.0147705" width="51.0723" height="62.4707" filterUnits="userSpaceOnUse" color-interpolation-filters="sRGB">
<feFlood flood-opacity="0" result="BackgroundImageFix"/>
<feBlend mode="normal" in="SourceGraphic" in2="BackgroundImageFix" result="shape"/>
<feGaussianBlur stdDeviation="1.5" result="effect1_foregroundBlur_346_957"/>
</filter>
<linearGradient id="paint0_linear_346_957" x1="29.2504" y1="1" x2="29.2504" y2="61.4997" gradientUnits="userSpaceOnUse">
<stop stop-color="#F1948A"/>
<stop offset="1" stop-color="#F1948A"/>
</linearGradient>
<linearGradient id="paint1_linear_346_957" x1="29.2504" y1="1" x2="29.2504" y2="61.4997" gradientUnits="userSpaceOnUse">
<stop stop-color="#F1948A"/>
<stop offset="1" stop-color="#F1948A"/>
</linearGradient>
<linearGradient id="paint2_linear_346_957" x1="29.2504" y1="1" x2="29.2504" y2="61.4997" gradientUnits="userSpaceOnUse">
<stop stop-color="#F1948A"/>
<stop offset="1" stop-color="#F1948A"/>
</linearGradient>
<linearGradient id="paint3_linear_346_957" x1="29.2504" y1="1" x2="29.2504" y2="61.4997" gradientUnits="userSpaceOnUse">
<stop stop-color="#F1948A"/>
<stop offset="1" stop-color="#F1948A"/>
</linearGradient>
<linearGradient id="paint4_linear_346_957" x1="29.2504" y1="1" x2="29.2504" y2="61.4997" gradientUnits="userSpaceOnUse">
<stop stop-color="#F1948A"/>
<stop offset="1" stop-color="#F1948A"/>
</linearGradient>
<linearGradient id="paint5_linear_346_957" x1="29.2504" y1="1" x2="29.2504" y2="61.4997" gradientUnits="userSpaceOnUse">
<stop stop-color="#F1948A"/>
<stop offset="1" stop-color="#F1948A"/>
</linearGradient>
<linearGradient id="paint6_linear_346_957" x1="24.91" y1="3.01453" x2="24.91" y2="59.4853" gradientUnits="userSpaceOnUse">
<stop stop-color="#F7A175"/>
<stop offset="1" stop-color="#FFF2DC"/>
</linearGradient>
<linearGradient id="paint7_linear_346_957" x1="24.91" y1="3.01453" x2="24.91" y2="59.4853" gradientUnits="userSpaceOnUse">
<stop stop-color="#F7A175"/>
<stop offset="1" stop-color="#FFF2DC"/>
</linearGradient>
<linearGradient id="paint8_linear_346_957" x1="24.91" y1="3.01453" x2="24.91" y2="59.4853" gradientUnits="userSpaceOnUse">
<stop stop-color="#F7A175"/>
<stop offset="1" stop-color="#FFF2DC"/>
</linearGradient>
<linearGradient id="paint9_linear_346_957" x1="24.91" y1="3.01453" x2="24.91" y2="59.4853" gradientUnits="userSpaceOnUse">
<stop stop-color="#F7A175"/>
<stop offset="1" stop-color="#FFF2DC"/>
</linearGradient>
<linearGradient id="paint10_linear_346_957" x1="24.91" y1="3.01453" x2="24.91" y2="59.4853" gradientUnits="userSpaceOnUse">
<stop stop-color="#F7A175"/>
<stop offset="1" stop-color="#FFF2DC"/>
</linearGradient>
<linearGradient id="paint11_linear_346_957" x1="24.91" y1="3.01453" x2="24.91" y2="59.4853" gradientUnits="userSpaceOnUse">
<stop stop-color="#F7A175"/>
<stop offset="1" stop-color="#FFF2DC"/>
</linearGradient>
<linearGradient id="paint12_linear_346_957" x1="24.91" y1="3.01453" x2="24.91" y2="59.4853" gradientUnits="userSpaceOnUse">
<stop stop-color="#F7A175"/>
<stop offset="1" stop-color="#FFF2DC"/>
</linearGradient>
<linearGradient id="paint13_linear_346_957" x1="24.91" y1="3.01453" x2="24.91" y2="59.4853" gradientUnits="userSpaceOnUse">
<stop stop-color="#F7A175"/>
<stop offset="1" stop-color="#FFF2DC"/>
</linearGradient>
<linearGradient id="paint14_linear_346_957" x1="24.91" y1="3.01453" x2="24.91" y2="59.4853" gradientUnits="userSpaceOnUse">
<stop stop-color="#F7A175"/>
<stop offset="1" stop-color="#FFF2DC"/>
</linearGradient>
</defs>
</svg>
