<svg width="60" height="60" viewBox="0 0 60 60" fill="none" xmlns="http://www.w3.org/2000/svg">
<path d="M8.73217 55.2648C8.49334 57.1348 6.93654 58.5497 5.05438 58.5497H7.74774C9.62989 58.5497 11.1864 57.1348 11.4255 55.2648C11.9342 51.2793 13.8516 44.5371 20.9474 40.0053H18.254C11.1583 44.5371 9.24111 51.2793 8.73217 55.2648Z" fill="url(#paint0_linear_346_943)"/>
<path d="M31.886 39.8487C31.8284 39.8483 31.7715 39.8369 31.719 39.8152C31.6665 39.7935 31.6196 39.7619 31.5812 39.7225L29.1708 37.3082C29.0532 37.1912 29.1227 36.9811 29.2871 36.9555C30.1277 36.8225 30.9792 36.7552 31.8323 36.7546H29.1389C28.2858 36.7552 27.4344 36.8225 26.5938 36.9555C26.4293 36.9811 26.3598 37.1912 26.4775 37.3082L28.8879 39.7225C28.9262 39.7619 28.9731 39.7935 29.0256 39.8152C29.0781 39.8369 29.1351 39.8483 29.1927 39.8487H31.886Z" fill="url(#paint1_linear_346_943)"/>
<path d="M31.8861 29.1252C28.5589 29.1252 25.625 27.4456 23.8801 24.8891H21.1867C22.9317 27.4456 25.8654 29.1252 29.1927 29.1252H31.8861Z" fill="url(#paint2_linear_346_943)"/>
<path d="M19.7641 17.2032H22.4574C23.4609 12.9153 27.2964 9.71775 31.8861 9.71775H29.1927C24.6029 9.71775 20.7675 12.9153 19.7641 17.2032Z" fill="url(#paint3_linear_346_943)"/>
<path d="M39.921 40.0902L31.9049 48.116C31.1557 48.8657 30.1742 49.2408 29.1925 49.2408H31.8859C32.8677 49.2408 33.849 48.8657 34.5983 48.116L42.6143 40.0902C42.6364 40.0681 42.6638 40.0509 42.6944 40.0401C42.725 40.0294 42.7579 40.0252 42.7905 40.0281H40.0972C40.0645 40.0252 40.0316 40.0294 40.0011 40.0401C39.9705 40.0509 39.9431 40.0681 39.921 40.0902Z" fill="url(#paint4_linear_346_943)"/>
<path d="M44.2334 32.0344C44.2058 32.0198 44.182 31.9997 44.164 31.9756C44.1459 31.9515 44.134 31.924 44.129 31.8951C44.124 31.8662 44.1262 31.8367 44.1353 31.8086C44.1445 31.7806 44.1603 31.7548 44.1817 31.7331C47.3637 28.5488 49.3266 24.1429 49.2861 19.2721C49.2089 10.0971 41.7141 2.35722 32.5559 2.01252C32.3317 2.0042 32.1074 2 31.8857 2H29.1923C29.4143 2 29.6385 2.0042 29.8626 2.01252C39.0207 2.35722 46.5155 10.0973 46.5927 19.2721C46.6332 24.1429 44.6704 28.5488 41.4884 31.7331C41.467 31.7548 41.4511 31.7806 41.442 31.8086C41.4328 31.8367 41.4307 31.8662 41.4356 31.8951C41.4406 31.9239 41.4525 31.9515 41.4706 31.9756C41.4886 31.9997 41.5124 32.0198 41.54 32.0344C53.3729 37.9549 56.427 48.5134 57.1924 54.3612C57.4832 56.5847 55.7561 58.5498 53.517 58.5498H56.2104C58.4494 58.5498 60.1765 56.5847 59.8857 54.3612C59.1205 48.5134 56.0662 37.955 44.2334 32.0344Z" fill="url(#paint5_linear_346_943)"/>
<path d="M57.1924 54.3612C57.4832 56.5847 55.7561 58.5498 53.5171 58.5498C51.475 58.5498 49.9147 57.1084 49.6895 55.2211C49.2147 51.2417 47.3267 44.5546 40.293 40.0515C40.0542 40.0047 39.9774 40.0337 39.9208 40.0903L31.9048 48.1161C31.1555 48.8658 30.1741 49.2408 29.1923 49.2408C28.2106 49.2408 27.2292 48.8658 26.4803 48.1161L18.4649 40.0916C18.4383 40.0645 18.4058 40.0429 18.3695 40.0281C18.3331 40.0133 18.2938 40.0056 18.254 40.0056C11.1583 44.5374 9.24082 51.2796 8.73219 55.265C8.49335 57.1351 6.93655 58.55 5.0544 58.55C2.64087 58.55 0.915769 56.5758 1.21254 54.3475C1.99913 48.4354 5.07639 37.7465 16.8401 32.0343C16.8681 32.0198 16.8922 31.9997 16.9106 31.9755C16.929 31.9513 16.9412 31.9236 16.9463 31.8945C16.9514 31.8654 16.9493 31.8356 16.9401 31.8074C16.9309 31.7791 16.9148 31.7531 16.8932 31.7313C13.7454 28.5788 11.7913 24.2316 11.7913 19.4216C11.7913 9.79986 19.5815 2.00024 29.1923 2.00024C29.4144 2.00024 29.6386 2.00447 29.8627 2.01285C39.0208 2.35749 46.5156 10.0976 46.5928 19.2723C46.6333 24.1432 44.6704 28.5491 41.4885 31.7334C41.467 31.7551 41.4512 31.7809 41.442 31.8089C41.4329 31.8369 41.4307 31.8665 41.4357 31.8953C41.4406 31.9242 41.4526 31.9517 41.4706 31.9758C41.4887 31.9999 41.5124 32.02 41.5401 32.0347C53.3729 37.955 56.4271 48.5135 57.1924 54.3612ZM19.764 17.2032H38.6205C37.6171 12.9154 33.7822 9.71783 29.1925 9.71783C24.6028 9.71783 20.7674 12.9154 19.764 17.2032ZM29.1925 29.1253C32.519 29.1253 35.4521 27.4457 37.1978 24.8892H21.1868C22.9317 27.4457 25.8653 29.1253 29.1925 29.1253ZM31.9051 37.3115C32.0235 37.193 31.9487 36.9832 31.7833 36.9588C30.9093 36.8255 30.025 36.7573 29.1389 36.7547C28.2858 36.7553 27.4344 36.8225 26.5938 36.9557C26.4293 36.9811 26.3599 37.1912 26.4775 37.3083L28.8879 39.7226C28.9259 39.7622 28.9727 39.794 29.0252 39.8157C29.0777 39.8375 29.1347 39.8488 29.1924 39.8488C29.25 39.8488 29.307 39.8375 29.3595 39.8157C29.412 39.794 29.4588 39.7622 29.4968 39.7226L31.9051 37.3115Z" fill="#F1948A"/>
<g style="mix-blend-mode:multiply" opacity="0.4" filter="url(#filter0_f_346_943)">
<path d="M55.7643 54.4663C55.8933 55.6335 54.9877 56.6627 53.8145 56.6627C52.8361 56.6627 51.988 55.9397 51.8834 54.9669C51.0961 47.6433 46.7877 41.3784 40.6882 37.8951C40.5789 37.8323 40.4524 37.7989 40.3233 37.7989C40.2213 37.7998 40.1207 37.8201 40.0278 37.8586C39.935 37.897 39.8518 37.9527 39.7838 38.0222L30.9748 46.8419C30.8035 47.0207 30.5923 47.1639 30.3556 47.2621C30.1188 47.3603 29.8618 47.4111 29.6019 47.4111C29.3419 47.4111 29.0849 47.3603 28.8481 47.2621C28.6114 47.1639 28.4002 47.0207 28.2289 46.8419L19.4205 38.0233C19.3526 37.9537 19.2695 37.8979 19.1765 37.8593C19.0836 37.8208 18.9829 37.8005 18.8809 37.7996C18.7517 37.7997 18.6251 37.8331 18.5157 37.8959C12.4167 41.3784 8.10786 47.6432 7.32053 54.9661C7.21618 55.9395 6.36798 56.6626 5.39021 56.6626C4.21734 56.6626 3.3117 55.6327 3.44102 54.4658C4.5232 44.6796 10.9685 36.5221 19.764 32.9699C20.3365 32.7387 20.4673 31.9916 19.9832 31.6082C16.3912 28.7631 14.0839 24.3648 14.0839 19.4235C14.0839 10.8431 21.0313 3.8868 29.6023 3.88708C30.1948 3.88729 30.7868 3.92015 31.375 3.98548C38.4487 4.77003 44.2062 10.5117 45.016 17.591C45.6654 23.272 43.2488 28.4251 39.2135 31.6168C38.7338 31.9965 38.8781 32.7423 39.445 32.9718C48.2383 36.5253 54.6818 44.6812 55.7643 54.4663ZM18.0936 18.2589C18.0488 18.7055 18.4213 19.0891 18.8696 19.0891H40.3361C40.7835 19.0891 41.1566 18.7055 41.1118 18.2589C40.5284 12.4045 35.6044 7.83064 29.6029 7.83064C23.6014 7.83064 18.6771 12.4045 18.0937 18.2589H18.0936ZM29.6029 31.016C34.3096 31.016 38.3565 28.2015 40.1663 24.1629C40.4082 23.623 40.0287 23.0076 39.4375 23.0076H19.768C19.1762 23.0076 18.7972 23.6229 19.0391 24.1629C20.8486 28.2014 24.8952 31.016 29.6028 31.016H29.6029ZM35.3436 36.9347C35.7859 36.492 35.5599 35.7507 34.9534 35.6015C31.4482 34.7415 27.7571 34.7415 24.2518 35.6015C23.645 35.7505 23.4195 36.4918 23.8611 36.9347L28.9887 42.0681C29.0654 42.148 29.1598 42.2119 29.2656 42.2557C29.3715 42.2995 29.4863 42.3222 29.6025 42.3222C29.7187 42.3222 29.8335 42.2995 29.9394 42.2557C30.0452 42.2119 30.1396 42.148 30.2163 42.0681L35.3436 36.9347" fill="#F1948A"/>
</g>
<path d="M16.0239 37.896C9.92497 41.3785 5.61609 47.6433 4.82875 54.9662C4.72441 55.9397 3.87621 56.6627 2.89844 56.6627H3.54456C4.52258 56.6627 5.37045 55.9397 5.47486 54.9662C6.26213 47.6433 10.5711 41.3785 16.6701 37.896C16.7795 37.8332 16.906 37.7998 17.0352 37.7997H16.3891C16.2599 37.7998 16.1334 37.8332 16.0239 37.896Z" fill="url(#paint6_linear_346_943)"/>
<path d="M27.7565 42.3219C27.6405 42.3212 27.5259 42.2982 27.4202 42.2544C27.3144 42.2107 27.2199 42.1471 27.1427 42.0678L22.0152 36.9344C21.5736 36.4917 21.7991 35.7504 22.4059 35.6012C24.151 35.1726 25.9501 34.9558 27.757 34.9562H27.1109C25.304 34.9558 23.5049 35.1726 21.7598 35.6012C21.153 35.7502 20.9275 36.4915 21.3691 36.9344L26.4966 42.0678C26.5738 42.1471 26.6683 42.2107 26.7741 42.2544C26.8798 42.2982 26.9944 42.3212 27.1104 42.3219H27.7565Z" fill="url(#paint7_linear_346_943)"/>
<path d="M27.7569 31.016C23.0493 31.016 19.0027 28.2015 17.1931 24.163C16.9513 23.6231 17.3302 23.0076 17.922 23.0076H17.2759C16.6841 23.0076 16.3051 23.6229 16.547 24.163C18.3565 28.2015 22.4031 31.016 27.1107 31.016H27.7569Z" fill="url(#paint8_linear_346_943)"/>
<path d="M15.6013 18.2588C15.5566 18.7054 15.9291 19.089 16.3773 19.089H17.0234C16.5749 19.089 16.2027 18.7054 16.2474 18.2588C16.8308 12.4044 21.7548 7.83052 27.7567 7.83052H27.1106C21.1089 7.83064 16.1849 12.4045 15.6013 18.2588Z" fill="url(#paint9_linear_346_943)"/>
<path d="M37.2921 38.0222L28.4832 46.8418C28.3107 47.0193 28.0994 47.1617 27.8629 47.2598C27.6264 47.3578 27.37 47.4093 27.1104 47.411H27.7565C28.0161 47.4093 28.2725 47.3578 28.509 47.2598C28.7454 47.1617 28.9568 47.0193 29.1293 46.8418L37.9382 38.0222C38.0063 37.9527 38.0894 37.897 38.1823 37.8586C38.2752 37.8201 38.3758 37.7998 38.4778 37.7989H37.8317C37.7297 37.7998 37.6291 37.8201 37.5362 37.8586C37.4433 37.897 37.3602 37.9527 37.2921 38.0222Z" fill="url(#paint10_linear_346_943)"/>
<path d="M37.5993 32.9714C37.0324 32.742 36.8884 31.9961 37.3677 31.6165C41.403 28.4247 43.8197 23.2717 43.1703 17.5907C42.3604 10.5115 36.603 4.7698 29.5293 3.98509C28.9411 3.91973 28.3491 3.88689 27.7566 3.88672H27.1105C27.703 3.88689 28.295 3.91973 28.8832 3.98509C35.9568 4.76963 41.7143 10.5113 42.5241 17.5907C43.1735 23.2717 40.7569 28.4247 36.7216 31.6165C36.2423 31.9961 36.3862 32.742 36.9532 32.9714C45.7463 36.5252 52.1897 44.6812 53.2722 54.4662C53.4012 55.6334 52.4956 56.6626 51.3224 56.6626H51.9687C53.1415 56.6626 54.0472 55.6334 53.9185 54.4662C52.8359 44.6812 46.3924 36.5252 37.5993 32.9714Z" fill="url(#paint11_linear_346_943)"/>
<path d="M53.2723 54.4663C53.4013 55.6335 52.4957 56.6627 51.3225 56.6627C50.3441 56.6627 49.4959 55.9397 49.3914 54.9669C48.6041 47.6433 44.2957 41.3784 38.1962 37.8951C38.0869 37.8323 37.9604 37.7989 37.8313 37.7989C37.7293 37.7998 37.6287 37.8201 37.5358 37.8586C37.4429 37.897 37.3598 37.9527 37.2918 38.0222L28.4828 46.8419C28.3114 47.0207 28.1003 47.1639 27.8635 47.2621C27.6268 47.3603 27.3698 47.4111 27.1098 47.4111C26.8499 47.4111 26.5929 47.3603 26.3561 47.2621C26.1193 47.1639 25.9082 47.0207 25.7369 46.8419L16.9285 38.0233C16.8605 37.9537 16.7774 37.8979 16.6845 37.8593C16.5916 37.8208 16.4909 37.8005 16.3889 37.7996C16.2597 37.7997 16.1331 37.8331 16.0237 37.8959C9.92474 41.3784 5.61584 47.6432 4.82851 54.9661C4.72416 55.9395 3.87596 56.6626 2.89819 56.6626C1.72532 56.6626 0.819698 55.6327 0.94902 54.4658C2.0312 44.6796 8.47646 36.5221 17.272 32.9699C17.8445 32.7387 17.9753 31.9916 17.4912 31.6082C13.8992 28.7631 11.5919 24.3648 11.5919 19.4235C11.5919 10.8431 18.5393 3.8868 27.1103 3.88708C27.7028 3.88729 28.2948 3.92015 28.883 3.98548C35.9567 4.77003 41.7142 10.5117 42.524 17.591C43.1734 23.272 40.7568 28.4251 36.7215 31.6168C36.2418 31.9965 36.3861 32.7423 36.953 32.9718C45.7463 36.5253 52.1898 44.6812 53.2723 54.4663ZM15.6014 18.2589C15.5566 18.7055 15.9291 19.0891 16.3774 19.0891H37.8439C38.2913 19.0891 38.6644 18.7055 38.6196 18.2589C38.0362 12.4045 33.1123 7.83064 27.1107 7.83064C21.1092 7.83064 16.1849 12.4046 15.6014 18.2589ZM27.1106 31.016C31.8173 31.016 35.8642 28.2015 37.674 24.1629C37.9159 23.623 37.5364 23.0076 36.9452 23.0076H17.276C16.6842 23.0076 16.3052 23.6229 16.5471 24.1629C18.3566 28.2014 22.4032 31.016 27.1108 31.016H27.1106ZM32.8516 36.9347C33.2938 36.492 33.0679 35.7507 32.4614 35.6015C28.9562 34.7415 25.2651 34.7415 21.7598 35.6015C21.153 35.7505 20.9275 36.4918 21.3691 36.9347L26.4967 42.0681C26.5733 42.148 26.6678 42.2119 26.7736 42.2557C26.8795 42.2995 26.9943 42.3222 27.1105 42.3222C27.2267 42.3222 27.3415 42.2995 27.4474 42.2557C27.5532 42.2119 27.6476 42.148 27.7243 42.0681L32.8516 36.9347" fill="#FFF2DC"/>
<defs>
<filter id="filter0_f_346_943" x="0.428711" y="0.887085" width="58.3478" height="58.7756" filterUnits="userSpaceOnUse" color-interpolation-filters="sRGB">
<feFlood flood-opacity="0" result="BackgroundImageFix"/>
<feBlend mode="normal" in="SourceGraphic" in2="BackgroundImageFix" result="shape"/>
<feGaussianBlur stdDeviation="1.5" result="effect1_foregroundBlur_346_943"/>
</filter>
<linearGradient id="paint0_linear_346_943" x1="32.4861" y1="2" x2="32.4861" y2="58.5498" gradientUnits="userSpaceOnUse">
<stop stop-color="#F1948A"/>
<stop offset="1" stop-color="#F1948A"/>
</linearGradient>
<linearGradient id="paint1_linear_346_943" x1="32.4861" y1="2" x2="32.4861" y2="58.5498" gradientUnits="userSpaceOnUse">
<stop stop-color="#F1948A"/>
<stop offset="1" stop-color="#F1948A"/>
</linearGradient>
<linearGradient id="paint2_linear_346_943" x1="32.4861" y1="2" x2="32.4861" y2="58.5498" gradientUnits="userSpaceOnUse">
<stop stop-color="#F1948A"/>
<stop offset="1" stop-color="#F1948A"/>
</linearGradient>
<linearGradient id="paint3_linear_346_943" x1="32.4861" y1="2" x2="32.4861" y2="58.5498" gradientUnits="userSpaceOnUse">
<stop stop-color="#F1948A"/>
<stop offset="1" stop-color="#F1948A"/>
</linearGradient>
<linearGradient id="paint4_linear_346_943" x1="32.4861" y1="2" x2="32.4861" y2="58.5498" gradientUnits="userSpaceOnUse">
<stop stop-color="#F1948A"/>
<stop offset="1" stop-color="#F1948A"/>
</linearGradient>
<linearGradient id="paint5_linear_346_943" x1="32.4861" y1="2" x2="32.4861" y2="58.5498" gradientUnits="userSpaceOnUse">
<stop stop-color="#F1948A"/>
<stop offset="1" stop-color="#F1948A"/>
</linearGradient>
<linearGradient id="paint6_linear_346_943" x1="28.4146" y1="3.88672" x2="28.4146" y2="56.6627" gradientUnits="userSpaceOnUse">
<stop stop-color="#F7A175"/>
<stop offset="1" stop-color="#FFF2DC"/>
</linearGradient>
<linearGradient id="paint7_linear_346_943" x1="28.4146" y1="3.88672" x2="28.4146" y2="56.6627" gradientUnits="userSpaceOnUse">
<stop stop-color="#F7A175"/>
<stop offset="1" stop-color="#FFF2DC"/>
</linearGradient>
<linearGradient id="paint8_linear_346_943" x1="28.4146" y1="3.88672" x2="28.4146" y2="56.6627" gradientUnits="userSpaceOnUse">
<stop stop-color="#F7A175"/>
<stop offset="1" stop-color="#FFF2DC"/>
</linearGradient>
<linearGradient id="paint9_linear_346_943" x1="28.4146" y1="3.88672" x2="28.4146" y2="56.6627" gradientUnits="userSpaceOnUse">
<stop stop-color="#F7A175"/>
<stop offset="1" stop-color="#FFF2DC"/>
</linearGradient>
<linearGradient id="paint10_linear_346_943" x1="28.4146" y1="3.88672" x2="28.4146" y2="56.6627" gradientUnits="userSpaceOnUse">
<stop stop-color="#F7A175"/>
<stop offset="1" stop-color="#FFF2DC"/>
</linearGradient>
<linearGradient id="paint11_linear_346_943" x1="28.4146" y1="3.88672" x2="28.4146" y2="56.6627" gradientUnits="userSpaceOnUse">
<stop stop-color="#F7A175"/>
<stop offset="1" stop-color="#FFF2DC"/>
</linearGradient>
</defs>
</svg>
