<svg width="16" height="16" viewBox="0 0 16 16" fill="none" xmlns="http://www.w3.org/2000/svg">
<path d="M12.6175 12.0725C12.3403 11.416 11.9381 10.8197 11.4332 10.3167C10.9299 9.81236 10.3337 9.41021 9.67747 9.13251C9.67159 9.12957 9.66571 9.1281 9.65983 9.12517C10.5752 8.46399 11.1702 7.38702 11.1702 6.17193C11.1702 4.15903 9.53935 2.52814 7.52645 2.52814C5.51355 2.52814 3.88266 4.15903 3.88266 6.17193C3.88266 7.38702 4.47771 8.46399 5.39307 9.12664C5.38719 9.12957 5.38131 9.13104 5.37544 9.13398C4.7172 9.41167 4.12656 9.80985 3.61966 10.3182C3.11527 10.8215 2.71312 11.4178 2.43542 12.074C2.16261 12.7164 2.01548 13.4052 2.00199 14.1031C2.0016 14.1187 2.00435 14.1343 2.01008 14.1489C2.01581 14.1635 2.02441 14.1769 2.03536 14.1881C2.04631 14.1993 2.05941 14.2082 2.07386 14.2143C2.08832 14.2204 2.10385 14.2235 2.11953 14.2235H3.00109C3.06574 14.2235 3.11717 14.1721 3.11864 14.1089C3.14802 12.9747 3.6035 11.9124 4.40866 11.1072C5.24173 10.2741 6.3481 9.81572 7.52645 9.81572C8.70481 9.81572 9.81117 10.2741 10.6442 11.1072C11.4494 11.9124 11.9049 12.9747 11.9343 14.1089C11.9357 14.1736 11.9872 14.2235 12.0518 14.2235H12.9334C12.9491 14.2235 12.9646 14.2204 12.979 14.2143C12.9935 14.2082 13.0066 14.1993 13.0175 14.1881C13.0285 14.1769 13.0371 14.1635 13.0428 14.1489C13.0486 14.1343 13.0513 14.1187 13.0509 14.1031C13.0362 13.4007 12.8908 12.7175 12.6175 12.0725V12.0725ZM7.52645 8.69908C6.85206 8.69908 6.21733 8.43608 5.73982 7.95856C5.2623 7.48105 4.9993 6.84633 4.9993 6.17193C4.9993 5.49753 5.2623 4.86281 5.73982 4.3853C6.21733 3.90778 6.85206 3.64478 7.52645 3.64478C8.20085 3.64478 8.83557 3.90778 9.31309 4.3853C9.7906 4.86281 10.0536 5.49753 10.0536 6.17193C10.0536 6.84633 9.7906 7.48105 9.31309 7.95856C8.83557 8.43608 8.20085 8.69908 7.52645 8.69908Z" fill="#2980B9"/>
</svg>
