<svg width="47" height="49" viewBox="0 0 47 49" fill="none" xmlns="http://www.w3.org/2000/svg">
<path d="M5.45833 14.3329H37.5416V9.74961H5.45833V14.3329ZM5.45833 46.4163C4.19792 46.4163 3.11892 45.9675 2.22135 45.0699C1.32378 44.1724 0.875 43.0934 0.875 41.8329V9.74961C0.875 8.4892 1.32378 7.4102 2.22135 6.51263C3.11892 5.61507 4.19792 5.16628 5.45833 5.16628H7.75V0.582947H12.3333V5.16628H30.6667V0.582947H35.25V5.16628H37.5416C38.8021 5.16628 39.8811 5.61507 40.7786 6.51263C41.6762 7.4102 42.125 8.4892 42.125 9.74961V22.7548C41.3993 22.4111 40.6545 22.1246 39.8906 21.8954C39.1267 21.6663 38.3437 21.4944 37.5416 21.3798V18.9163H5.45833V41.8329H19.8958C20.1632 42.6732 20.4783 43.4753 20.8411 44.2392C21.204 45.0031 21.6337 45.7288 22.1302 46.4163H5.45833ZM35.25 48.7079C32.0798 48.7079 29.3776 47.5908 27.1432 45.3564C24.9088 43.122 23.7917 40.4198 23.7917 37.2496C23.7917 34.0795 24.9088 31.3772 27.1432 29.1428C29.3776 26.9085 32.0798 25.7913 35.25 25.7913C38.4201 25.7913 41.1224 26.9085 43.3568 29.1428C45.5911 31.3772 46.7083 34.0795 46.7083 37.2496C46.7083 40.4198 45.5911 43.122 43.3568 45.3564C41.1224 47.5908 38.4201 48.7079 35.25 48.7079ZM39.0885 42.6923L40.6927 41.0882L36.3958 36.7913V30.3746H34.1042V37.7079L39.0885 42.6923Z" fill="#F1948A"/>
</svg>
