<svg width="16" height="17" viewBox="0 0 16 17" fill="none" xmlns="http://www.w3.org/2000/svg">
<path d="M8.24836 15.0934C6.94649 15.0934 5.67386 14.7074 4.5914 13.9841C3.50895 13.2608 2.66527 12.2328 2.16707 11.0301C1.66887 9.8273 1.53852 8.50381 1.7925 7.22696C2.04648 5.95011 2.67338 4.77725 3.59394 3.8567C4.5145 2.93614 5.68736 2.30923 6.96421 2.05525C8.24105 1.80127 9.56454 1.93162 10.7673 2.42983C11.9701 2.92803 12.9981 3.7717 13.7214 4.85416C14.4446 5.93662 14.8307 7.20925 14.8307 8.51111C14.8307 10.2569 14.1372 11.9311 12.9028 13.1655C11.6683 14.4 9.9941 15.0934 8.24836 15.0934ZM8.24836 2.86911C7.13247 2.86911 6.04165 3.20001 5.11383 3.81996C4.186 4.43991 3.46285 5.32107 3.03582 6.35201C2.60879 7.38295 2.49706 8.51737 2.71476 9.61181C2.93246 10.7063 3.46981 11.7116 4.25886 12.5006C5.0479 13.2897 6.05321 13.827 7.14766 14.0447C8.2421 14.2624 9.37651 14.1507 10.4075 13.7236C11.4384 13.2966 12.3196 12.5735 12.9395 11.6456C13.5595 10.7178 13.8904 9.62699 13.8904 8.51111C13.8904 7.01476 13.2959 5.57969 12.2379 4.52161C11.1798 3.46353 9.74471 2.86911 8.24836 2.86911V2.86911Z" fill="#2980B9"/>
<path d="M10.4075 11.332L7.7793 8.70381V4.27954H8.71963V8.31357L11.0705 10.6691L10.4075 11.332Z" fill="#2980B9"/>
</svg>
