<svg width="24" height="24" viewBox="0 0 24 24" fill="none" xmlns="http://www.w3.org/2000/svg">
<path d="M12 24C5.36471 24 0 18.6353 0 12C0 5.36471 5.36471 0 12 0C18.6353 0 24 5.36471 24 12C24 18.6353 18.5647 24 12 24ZM12 1.41176C6.14118 1.41176 1.41176 6.14118 1.41176 12C1.41176 17.8588 6.14118 22.5882 12 22.5882C17.8588 22.5882 22.5882 17.8588 22.5882 12C22.5882 6.14118 17.7882 1.41176 12 1.41176Z" fill="#2980B9"/>
<path d="M5.08223 20.6826L3.81165 20.1178C4.16459 19.2708 5.294 18.7767 6.494 18.212C7.694 17.6473 9.17635 17.012 9.17635 16.2355V15.1767C8.75282 14.8237 8.04694 14.0473 7.90576 12.9178C7.55282 12.5649 6.98812 11.9296 6.98812 11.0826C6.98812 10.5884 7.19988 10.1649 7.34106 9.88255C7.19988 9.31785 7.0587 8.25902 7.0587 7.41197C7.0587 4.65902 8.96459 2.82373 11.9999 2.82373C12.8469 2.82373 13.9058 3.0355 14.4705 3.67079C15.8116 3.95314 16.9411 5.50608 16.9411 7.41197C16.9411 8.61197 16.7293 9.6002 16.5881 10.0943C16.7293 10.3061 16.8705 10.659 16.8705 11.0826C16.8705 12.0002 16.3764 12.6355 15.9528 12.9178C15.8116 14.0473 15.1764 14.7531 14.7528 15.1061V16.2355C14.7528 16.8708 16.0234 17.3649 17.1528 17.7884C18.494 18.2826 19.9058 18.8473 20.3999 19.9767L19.0587 20.4708C18.8469 19.9061 17.7175 19.4826 16.6587 19.1296C15.1058 18.5649 13.3411 17.9296 13.3411 16.3061V14.4708L13.694 14.259C13.694 14.259 14.5411 13.6943 14.5411 12.5649V12.0708L14.9646 11.859C15.0352 11.859 15.3881 11.6473 15.3881 11.0826C15.3881 10.9414 15.2469 10.7296 15.1764 10.659L14.894 10.3767L15.0352 10.0237C15.0352 10.0237 15.3881 8.89432 15.3881 7.48255C15.3881 6.14138 14.6116 5.15314 13.9764 5.15314H13.5528L13.3411 4.8002C13.3411 4.51785 12.8469 4.2355 11.9999 4.2355C9.81165 4.2355 8.47047 5.4355 8.47047 7.41197C8.47047 8.32961 8.82341 9.88255 8.82341 9.88255L8.894 10.2355L8.61165 10.5884C8.54106 10.5884 8.39988 10.8002 8.39988 11.0826C8.39988 11.4355 8.82341 11.859 9.03517 12.0002L9.31753 12.212V12.5649C9.31753 13.6237 10.2352 14.1884 10.2352 14.259L10.5881 14.4708V16.3061C10.5881 18.0002 8.75282 18.8473 7.0587 19.5531C6.28223 19.8355 5.22341 20.3296 5.08223 20.6826Z" fill="#2980B9"/>
</svg>
