<svg width="33" height="47" viewBox="0 0 33 47" fill="none" xmlns="http://www.w3.org/2000/svg">
<path d="M16.5 16.625C14.2847 16.625 12.3941 15.842 10.8281 14.276C9.26215 12.71 8.47917 10.8194 8.47917 8.60415C8.47917 6.38887 9.26215 4.49824 10.8281 2.93227C12.3941 1.3663 14.2847 0.583313 16.5 0.583313C18.7153 0.583313 20.6059 1.3663 22.1719 2.93227C23.7378 4.49824 24.5208 6.38887 24.5208 8.60415C24.5208 10.8194 23.7378 12.71 22.1719 14.276C20.6059 15.842 18.7153 16.625 16.5 16.625ZM16.5 12.0416C17.4549 12.0416 18.2665 11.7074 18.9349 11.039C19.6033 10.3706 19.9375 9.55901 19.9375 8.60415C19.9375 7.64928 19.6033 6.83765 18.9349 6.16925C18.2665 5.50085 17.4549 5.16665 16.5 5.16665C15.5451 5.16665 14.7335 5.50085 14.0651 6.16925C13.3967 6.83765 13.0625 7.64928 13.0625 8.60415C13.0625 9.55901 13.3967 10.3706 14.0651 11.039C14.7335 11.7074 15.5451 12.0416 16.5 12.0416ZM16.5 46.4166L2.75 32.6666C1.98611 31.9028 1.4132 31.0434 1.03125 30.0885C0.649308 29.1337 0.458336 28.0833 0.458336 26.9375C0.458336 24.684 1.23177 22.7838 2.77865 21.237C4.32552 19.6901 6.2257 18.9166 8.47917 18.9166C9.58681 18.9166 10.6085 19.1267 11.5443 19.5469C12.48 19.967 13.3299 20.559 14.0938 21.3229L16.5 23.7291L18.9063 21.3229C19.6701 20.559 20.52 19.967 21.4557 19.5469C22.3915 19.1267 23.4132 18.9166 24.5208 18.9166C26.7743 18.9166 28.6745 19.6901 30.2214 21.237C31.7682 22.7838 32.5417 24.684 32.5417 26.9375C32.5417 28.0833 32.3507 29.1337 31.9688 30.0885C31.5868 31.0434 31.0139 31.9028 30.25 32.6666L16.5 46.4166ZM16.5 39.8854L26.9271 29.4583C27.2708 29.1146 27.5286 28.7231 27.7005 28.2838C27.8724 27.8446 27.9583 27.3958 27.9583 26.9375C27.9583 26.0208 27.6337 25.2187 26.9844 24.5312C26.3351 23.8437 25.5139 23.5 24.5208 23.5C24.0625 23.5 23.6519 23.5668 23.2891 23.7005C22.9262 23.8342 22.5729 24.0729 22.2292 24.4166L16.5 30.1458L10.7708 24.4166C10.5417 24.1875 10.2457 23.9774 9.88281 23.7864C9.51997 23.5955 9.05209 23.5 8.47917 23.5C7.48611 23.5 6.66493 23.8437 6.01563 24.5312C5.36632 25.2187 5.04167 26.0208 5.04167 26.9375C5.04167 27.3958 5.13715 27.8255 5.32813 28.2265C5.5191 28.6276 5.76736 29 6.07292 29.3437L16.5 39.8854Z" fill="#F1948A"/>
</svg>
