<svg width="16" height="17" viewBox="0 0 16 17" fill="none" xmlns="http://www.w3.org/2000/svg">
<path d="M8.31451 5.84662C7.81572 5.84662 7.33737 6.04476 6.98468 6.39745C6.63198 6.75015 6.43384 7.2285 6.43384 7.72729C6.43384 8.22607 6.63198 8.70443 6.98468 9.05712C7.33737 9.40981 7.81572 9.60795 8.31451 9.60795C8.81329 9.60795 9.29165 9.40981 9.64434 9.05712C9.99703 8.70443 10.1952 8.22607 10.1952 7.72729C10.1952 7.2285 9.99703 6.75015 9.64434 6.39745C9.29165 6.04476 8.81329 5.84662 8.31451 5.84662V5.84662ZM7.21745 7.72729C7.21745 7.43633 7.33303 7.15729 7.53877 6.95155C7.74451 6.74581 8.02355 6.63023 8.31451 6.63023C8.60547 6.63023 8.88451 6.74581 9.09024 6.95155C9.29598 7.15729 9.41156 7.43633 9.41156 7.72729C9.41156 8.01824 9.29598 8.29728 9.09024 8.50302C8.88451 8.70876 8.60547 8.82434 8.31451 8.82434C8.02355 8.82434 7.74451 8.70876 7.53877 8.50302C7.33303 8.29728 7.21745 8.01824 7.21745 7.72729ZM12.3877 11.0185L9.22569 14.3754C9.10847 14.4999 8.96703 14.5991 8.81006 14.6669C8.6531 14.7347 8.48392 14.7697 8.31294 14.7697C8.14196 14.7697 7.97279 14.7347 7.81582 14.6669C7.65885 14.5991 7.51741 14.4999 7.40019 14.3754L4.23816 11.0185H4.25007L4.24474 11.0122L4.23816 11.0043C3.42656 10.0445 2.98223 8.82756 2.98438 7.57056C2.98438 4.62763 5.37001 2.242 8.31294 2.242C11.2559 2.242 13.6415 4.62763 13.6415 7.57056C13.6437 8.82756 13.1993 10.0445 12.3877 11.0043L12.3811 11.0122L12.3758 11.0185H12.3877V11.0185ZM11.7787 10.511C12.4771 9.69062 12.8598 8.64794 12.8579 7.57056C12.8579 5.0605 10.823 3.02562 8.31294 3.02562C5.80288 3.02562 3.76799 5.0605 3.76799 7.57056C3.76603 8.64796 4.14873 9.69066 4.84718 10.511L4.94373 10.6248L7.97066 13.8379C8.01462 13.8846 8.06766 13.9218 8.12652 13.9472C8.18538 13.9726 8.24882 13.9857 8.31294 13.9857C8.37706 13.9857 8.4405 13.9726 8.49936 13.9472C8.55822 13.9218 8.61126 13.8846 8.65522 13.8379L11.6822 10.6248L11.7787 10.511Z" fill="#2980B9"/>
</svg>
