<svg width="50" height="37" viewBox="0 0 50 37" fill="none" xmlns="http://www.w3.org/2000/svg">
<path d="M5.16666 36.8334C3.90624 36.8334 2.82725 36.3846 1.92968 35.487C1.03211 34.5894 0.583328 33.5104 0.583328 32.25V4.75002C0.583328 3.4896 1.03211 2.41061 1.92968 1.51304C2.82725 0.615472 3.90624 0.166687 5.16666 0.166687H18.9167L23.5 4.75002H41.8333C43.0937 4.75002 44.1727 5.19881 45.0703 6.09637C45.9679 6.99394 46.4167 8.07294 46.4167 9.33335H21.6094L17.026 4.75002H5.16666V32.25L10.6667 13.9167H49.8542L43.9531 33.5677C43.6476 34.5608 43.0842 35.3533 42.263 35.9453C41.4418 36.5373 40.5347 36.8334 39.5417 36.8334H5.16666ZM9.97916 32.25H39.5417L43.6667 18.5H14.1042L9.97916 32.25Z" fill="#F1948A"/>
</svg>
