<svg width="12" height="13" viewBox="0 0 12 13" fill="none" xmlns="http://www.w3.org/2000/svg">
<path d="M10.6175 10.0725C10.3403 9.41601 9.9381 8.81968 9.43324 8.31675C8.92992 7.81236 8.33369 7.41021 7.67747 7.13251C7.67159 7.12957 7.66571 7.1281 7.65983 7.12517C8.57519 6.46399 9.17024 5.38702 9.17024 4.17193C9.17024 2.15903 7.53935 0.528137 5.52645 0.528137C3.51355 0.528137 1.88266 2.15903 1.88266 4.17193C1.88266 5.38702 2.47771 6.46399 3.39307 7.12664C3.38719 7.12957 3.38131 7.13104 3.37544 7.13398C2.7172 7.41167 2.12656 7.80985 1.61966 8.31822C1.11527 8.82154 0.713124 9.41777 0.435425 10.074C0.162614 10.7164 0.0154806 11.4052 0.00198987 12.1031C0.00159771 12.1187 0.00434823 12.1343 0.0100794 12.1489C0.0158106 12.1635 0.0244065 12.1769 0.0353606 12.1881C0.0463146 12.1993 0.0594052 12.2082 0.073861 12.2143C0.0883168 12.2204 0.103845 12.2235 0.119532 12.2235H1.00109C1.06574 12.2235 1.11717 12.1721 1.11864 12.1089C1.14802 10.9747 1.6035 9.91237 2.40866 9.10721C3.24173 8.27414 4.3481 7.81572 5.52645 7.81572C6.70481 7.81572 7.81117 8.27414 8.64425 9.10721C9.44941 9.91237 9.90488 10.9747 9.93427 12.1089C9.93574 12.1736 9.98716 12.2235 10.0518 12.2235H10.9334C10.9491 12.2235 10.9646 12.2204 10.979 12.2143C10.9935 12.2082 11.0066 12.1993 11.0175 12.1881C11.0285 12.1769 11.0371 12.1635 11.0428 12.1489C11.0486 12.1343 11.0513 12.1187 11.0509 12.1031C11.0362 11.4007 10.8908 10.7175 10.6175 10.0725V10.0725ZM5.52645 6.69908C4.85206 6.69908 4.21733 6.43608 3.73982 5.95856C3.2623 5.48105 2.9993 4.84633 2.9993 4.17193C2.9993 3.49753 3.2623 2.86281 3.73982 2.3853C4.21733 1.90778 4.85206 1.64478 5.52645 1.64478C6.20085 1.64478 6.83557 1.90778 7.31309 2.3853C7.7906 2.86281 8.0536 3.49753 8.0536 4.17193C8.0536 4.84633 7.7906 5.48105 7.31309 5.95856C6.83557 6.43608 6.20085 6.69908 5.52645 6.69908Z" fill="#2980B9"/>
</svg>
