<svg width="20" height="24" viewBox="0 0 20 24" fill="none" xmlns="http://www.w3.org/2000/svg">
<path d="M19.2 12C19.2 11.6817 19.0736 11.3765 18.8485 11.1515C18.6235 10.9264 18.3183 10.8 18 10.8H8.892L11.652 8.052C11.7639 7.94011 11.8526 7.80729 11.9132 7.6611C11.9737 7.51491 12.0049 7.35823 12.0049 7.2C12.0049 7.04177 11.9737 6.88509 11.9132 6.7389C11.8526 6.59271 11.7639 6.45989 11.652 6.348C11.5401 6.23611 11.4073 6.14736 11.2611 6.08681C11.1149 6.02626 10.9582 5.99509 10.8 5.99509C10.6418 5.99509 10.4851 6.02626 10.3389 6.08681C10.1927 6.14736 10.0599 6.23611 9.948 6.348L5.148 11.148C5.03875 11.2621 4.95311 11.3967 4.896 11.544C4.77598 11.8362 4.77598 12.1638 4.896 12.456C4.95311 12.6033 5.03875 12.7379 5.148 12.852L9.948 17.652C10.0596 17.7645 10.1923 17.8537 10.3385 17.9147C10.4847 17.9756 10.6416 18.007 10.8 18.007C10.9584 18.007 11.1153 17.9756 11.2615 17.9147C11.4077 17.8537 11.5404 17.7645 11.652 17.652C11.7645 17.5404 11.8537 17.4077 11.9147 17.2615C11.9756 17.1153 12.007 16.9584 12.007 16.8C12.007 16.6416 11.9756 16.4847 11.9147 16.3385C11.8537 16.1923 11.7645 16.0596 11.652 15.948L8.892 13.2H18C18.3183 13.2 18.6235 13.0736 18.8485 12.8485C19.0736 12.6235 19.2 12.3183 19.2 12ZM15.6 0H3.6C2.64522 0 1.72955 0.379285 1.05442 1.05442C0.379285 1.72955 0 2.64522 0 3.6V20.4C0 21.3548 0.379285 22.2705 1.05442 22.9456C1.72955 23.6207 2.64522 24 3.6 24H15.6C16.5548 24 17.4705 23.6207 18.1456 22.9456C18.8207 22.2705 19.2 21.3548 19.2 20.4V16.8C19.2 16.4817 19.0736 16.1765 18.8485 15.9515C18.6235 15.7264 18.3183 15.6 18 15.6C17.6817 15.6 17.3765 15.7264 17.1515 15.9515C16.9264 16.1765 16.8 16.4817 16.8 16.8V20.4C16.8 20.7183 16.6736 21.0235 16.4485 21.2485C16.2235 21.4736 15.9183 21.6 15.6 21.6H3.6C3.28174 21.6 2.97652 21.4736 2.75147 21.2485C2.52643 21.0235 2.4 20.7183 2.4 20.4V3.6C2.4 3.28174 2.52643 2.97652 2.75147 2.75147C2.97652 2.52643 3.28174 2.4 3.6 2.4H15.6C15.9183 2.4 16.2235 2.52643 16.4485 2.75147C16.6736 2.97652 16.8 3.28174 16.8 3.6V7.2C16.8 7.51826 16.9264 7.82348 17.1515 8.04853C17.3765 8.27357 17.6817 8.4 18 8.4C18.3183 8.4 18.6235 8.27357 18.8485 8.04853C19.0736 7.82348 19.2 7.51826 19.2 7.2V3.6C19.2 2.64522 18.8207 1.72955 18.1456 1.05442C17.4705 0.379285 16.5548 0 15.6 0Z" fill="#2980B9"/>
</svg>
