<svg width="47" height="37" viewBox="0 0 47 37" fill="none" xmlns="http://www.w3.org/2000/svg">
<path d="M5.16667 36.8334C3.90625 36.8334 2.82726 36.3846 1.92969 35.487C1.03212 34.5894 0.583336 33.5104 0.583336 32.25V4.75002C0.583336 3.4896 1.03212 2.41061 1.92969 1.51304C2.82726 0.615472 3.90625 0.166687 5.16667 0.166687H32.6667C33.9271 0.166687 35.0061 0.615472 35.9036 1.51304C36.8012 2.41061 37.25 3.4896 37.25 4.75002V15.0625L46.4167 5.89585V31.1042L37.25 21.9375V32.25C37.25 33.5104 36.8012 34.5894 35.9036 35.487C35.0061 36.3846 33.9271 36.8334 32.6667 36.8334H5.16667ZM5.16667 32.25H32.6667V4.75002H5.16667V32.25Z" fill="#F1948A"/>
</svg>
